<svg width="24" height="24" viewBox="0 0 24 24" fill="none" xmlns="http://www.w3.org/2000/svg">
<path d="M15.1094 17.1936C14.5246 17.8162 14.6665 17.7568 13.3828 18.4238C13.0194 18.5398 12.5903 18.5955 12.0954 18.5907C11.3366 18.5835 10.7435 18.3986 10.3159 18.0659C9.88836 17.7332 9.69208 17.3131 9.69421 16.7754C9.69504 16.5663 9.69587 16.3572 9.72969 16.1484C9.76351 15.9396 9.79744 15.7009 9.89748 15.433L10.6992 12.9312C10.7661 12.6928 10.8331 12.4545 10.8669 12.2457C10.9007 12.0369 10.9345 11.8281 10.9352 11.6488C10.9365 11.3202 10.8714 11.1105 10.7069 10.9894C10.5754 10.8687 10.2787 10.8061 9.88285 10.8023C9.68491 10.8004 9.48685 10.8284 9.25567 10.8859C9.05749 10.9438 8.93894 10.9501 8.77386 10.9784L8.88748 10.8435C9.27299 10.3694 9.88641 9.90611 10.3817 9.79134C10.8442 9.64638 11.3063 9.59104 11.7022 9.59481C12.461 9.60205 13.0211 9.78664 13.4487 10.1193C13.8433 10.4517 14.0725 10.8721 14.0704 11.4099C14.0699 11.5294 14.0692 11.7086 14.0352 11.9771C14.0011 12.2457 13.9671 12.5142 13.8673 12.7224L13.0655 15.2242C12.9987 15.4327 12.9319 15.6412 12.8979 15.9097C12.8308 16.1779 12.8301 16.3572 12.8295 16.5065C12.8282 16.8351 12.8932 17.0748 13.0577 17.1958C13.2222 17.3169 13.5189 17.3795 13.9148 17.3832C14.1127 17.3851 14.3108 17.3572 14.5749 17.2999C14.8061 17.2424 14.9713 17.1842 15.1034 17.1556L15.1094 17.1936Z" stroke="#4A5665" stroke-miterlimit="10" stroke-linecap="round" stroke-linejoin="round"/>
<path d="M15.3104 6.23963C15.4471 7.10085 14.8717 7.90794 14.0253 8.04233C13.1788 8.17671 12.3818 7.5875 12.2451 6.72628C12.1083 5.86506 12.6837 5.05796 13.5301 4.92358C14.3766 4.78919 15.1737 5.37841 15.3104 6.23963Z" stroke="#4A5665" stroke-miterlimit="10" stroke-linecap="round" stroke-linejoin="round"/>
</svg>
