<svg width="64.000000" height="44.000000" viewBox="0 0 64 44" fill="none" xmlns="http://www.w3.org/2000/svg" xmlns:xlink="http://www.w3.org/1999/xlink">
	<desc>
			Created with Pixso.
	</desc>
	<defs>
		<clipPath id="clip432_22561">
			<rect id="logo" rx="-0.414508" width="63.170986" height="43.170986" transform="translate(0.414508 0.414508)" fill="white" fill-opacity="0"/>
		</clipPath>
	</defs>
	<rect id="logo" rx="-0.414508" width="63.170986" height="43.170986" transform="translate(0.414508 0.414508)" fill="#FFFFFF" fill-opacity="0"/>
	<g clip-path="url(#clip432_22561)">
		<path id="Vector" d="M11.06 23.84C10.86 23.51 10.7 23.17 10.56 22.81C10.37 23.05 10.11 23.23 9.82 23.32C9.52 23.38 6.99 23.61 6.97 23.61C6.53 23.65 6.07 23.72 5.76 24.19C5.59 24.49 5.44 24.81 5.31 25.13C5.07 25.71 4.79 26.28 4.47 26.83C4.47 26.83 3.59 28.13 3.49 28.27C3.38 28.4 3.43 28.55 3.49 28.72L3.53 28.9C3.51 29.13 3.44 29.36 3.34 29.56L3.34 29.62L4.01 30.49L4.05 30.51L4.09 30.49L4.93 29.43L4.93 29.36L4.66 28.99L4.48 28.76L4.52 28.64C4.74 28.61 4.87 28.56 4.89 28.5C4.93 28.36 4.94 28.22 4.93 28.07C4.9 27.69 4.96 27.32 5.12 26.97C5.42 26.53 5.75 26.12 6.12 25.72C6.22 25.61 6.32 25.5 6.46 25.34C6.72 25.01 6.84 25.03 6.99 25C7.62 25.02 8.25 25.11 8.86 25.29C9.42 25.5 11.02 25.66 12.37 25.49C12.24 25.26 11.59 24.66 11.06 23.84Z" fill="#181B21" fill-opacity="1.000000" fill-rule="nonzero"/>
		<path id="Vector" d="M24.96 27.64C24.19 27.13 23.24 26.54 22.8 26.42C22.44 26.32 21.87 26.45 21.31 26.62C21.6 26.87 21.81 27.19 21.93 27.55C22 27.72 22.07 27.89 22.16 28.05C22.34 28.36 22.55 28.66 22.78 28.93C23.09 29.31 23.34 29.61 23.35 30.04C23.37 30.48 22.92 31.83 22.5 32.6C22.14 33.27 21.66 34.02 21.38 34.47C21.27 34.63 21.2 34.75 21.16 34.81C21.1 34.91 21.06 35.02 21.02 35.12C20.99 35.25 20.93 35.37 20.85 35.47C20.7 35.61 20.45 35.78 20.4 35.84L20.14 35.88L20.11 35.88L19.42 36.64L19.42 36.69L19.46 36.72L20.94 36.72L20.99 36.7L21.27 36.26L21.27 36.1L21.39 35.95C21.44 35.95 21.57 35.95 21.7 35.95L21.74 35.93C22.15 35.23 22.5 34.5 22.8 33.75C22.94 33.44 23.05 33.19 23.12 33.08C23.67 32.07 24.31 31.12 25.04 30.24C25.24 30.01 25.42 29.77 25.57 29.5C25.6 29.38 25.52 29.26 25.4 29.09C25.09 28.68 24.93 28.16 24.96 27.64Z" fill="#181B21" fill-opacity="1.000000" fill-rule="nonzero"/>
		<path id="Vector" d="M16.97 43.55L16.77 43.41C16.76 43.38 15.3 39.88 6.71 39.88C2.59 39.88 0.49 37.76 0.49 33.59L0.49 0.65C0.49 0.6 0.51 0.54 0.55 0.51C0.59 0.47 0.64 0.44 0.69 0.44L33.24 0.44C33.26 0.44 33.29 0.45 33.32 0.46C33.34 0.47 33.37 0.48 33.39 0.5C33.41 0.52 33.42 0.55 33.43 0.57C33.44 0.6 33.45 0.62 33.45 0.65L33.45 33.59C33.45 37.76 31.35 39.88 27.22 39.88C18.59 39.88 17.18 43.38 17.17 43.41L16.97 43.55L16.97 43.55ZM1.37 1.46L1.37 33.25C1.37 37.08 3.21 38.62 7 38.62C14.16 38.62 16.37 40.54 16.96 41.47C17.55 40.54 19.77 38.62 26.91 38.62C30.7 38.62 32.54 37.08 32.54 33.25L32.54 1.46L1.37 1.46Z" fill="#181B21" fill-opacity="1.000000" fill-rule="nonzero"/>
		<path id="Vector" d="M29.73 32.66C29.53 31.59 29.44 30.54 29.37 29.77C29.36 29.37 29.31 28.96 29.22 28.57C29.02 28.33 28.79 28.12 28.54 27.95C28.08 27.58 27.5 27.13 27.43 26.83C27.17 25.79 27.29 24.74 27.39 23.81C27.46 23.31 27.49 22.79 27.48 22.28C27.28 22.14 27.1 21.98 26.93 21.8C27.09 21.92 27.27 22 27.46 22.06C27.66 22.13 27.87 22.16 28.09 22.16C28.25 22.17 28.41 22.14 28.56 22.1C28.64 22.08 28.72 22.05 28.79 22C28.86 21.96 28.92 21.89 28.97 21.82L28.94 21.75C28.49 21.53 28.11 21.21 27.8 20.82C27.58 20.54 27.32 20.3 27.03 20.11C26.81 20.01 26.57 19.95 26.33 19.91L26.17 19.88C26.14 19.88 26.06 19.83 25.96 19.78C25.54 19.58 24.56 19.12 23.63 19.13C22.86 19.16 22.09 19.27 21.33 19.44C20.8 19.58 20.25 19.64 19.7 19.64C19.25 19.61 18.8 19.6 18.35 19.61C17.49 19.61 16.86 19.63 16.26 19.1C15.21 18.19 15.57 16.83 15.98 15.25C16.27 14.32 16.42 13.35 16.44 12.38C16.2 12.32 15.98 12.21 15.78 12.07C16.04 12.14 16.3 12.19 16.57 12.2C16.9 12.21 17.24 12.17 17.56 12.07C17.84 11.97 18.09 11.79 18.27 11.55C18.44 11.31 18.55 11.02 18.57 10.73C18.57 10.6 18.5 10.57 18.47 10.56C18.05 10.55 17.63 10.59 17.22 10.69L16.7 10.79C17.43 10.53 18.13 10.19 18.78 9.76C18.89 9.68 19.01 9.61 19.14 9.56L19.26 9.56C19.66 9.59 20.74 9.66 21.05 8.78L21.01 8.67L20.89 8.69L20.86 8.72C20.73 8.89 20.55 9.02 20.35 9.1C20.15 9.18 19.94 9.21 19.72 9.18L19.93 9.01C20.29 8.71 20.62 8.37 20.9 8C21.1 7.74 21.78 6.75 21.95 4.82C21.95 4.72 21.95 4.63 21.95 4.54C21.95 4.45 21.95 4.36 21.95 4.28C22 3.83 22.02 3 21.57 2.46L21.43 2.44L21.39 2.57L21.43 2.68C21.62 3.04 21.69 3.44 21.64 3.84C21.63 3.91 21.6 3.97 21.55 4.02L21.51 3.99L21.48 3.93C21.32 3.64 21.06 3.43 20.75 3.33L20.63 3.38L20.66 3.52C20.9 3.7 21.1 3.93 21.23 4.21C21.36 4.48 21.43 4.77 21.43 5.08C21.43 5.84 21.2 6.58 20.79 7.22L20.64 7.34C20.59 7.34 20.53 7.31 20.42 7.23C20.23 7.08 19.69 6.11 20.18 4.91L20.13 4.76L19.99 4.83C19.72 5.24 19.59 5.72 19.61 6.21C19.63 6.7 19.79 7.17 20.08 7.57L20.18 7.74C20.22 7.83 20.23 7.93 20.22 8.03C20.18 8.18 19.28 8.91 18.97 9.06C18.79 9.15 18.57 9.18 18.37 9.13C18.11 9.03 16.81 8.05 17.32 6.04L17.28 5.91L17.16 5.98C16.67 7.28 16.87 8.38 17.76 9.25L17.83 9.32L17.86 9.48L17.73 9.61C17.28 9.87 16.76 9.99 16.24 9.96C16.08 9.9 15.94 9.79 15.84 9.65C15.64 9.39 15.5 9.1 15.43 8.78C15.35 8.47 15.35 8.14 15.42 7.82L15.33 7.7L15.2 7.78C15.08 8.14 15.04 8.53 15.09 8.91C15.13 9.29 15.27 9.65 15.48 9.97L15.58 10.13C15.49 10.24 14.25 10.29 14.08 10.18C12.76 9.38 12.13 7.49 12.17 6.63C12.25 5.07 12.67 3.89 13.41 3.12L13.41 2.99L13.27 2.99C12.3 3.76 12.07 4.68 11.92 5.56C11.92 5.62 11.9 5.67 11.88 5.71C11.85 5.76 11.82 5.8 11.78 5.83L11.58 5.81C11.58 5.81 10.94 5.43 11.11 4.27L11.04 4.16L10.93 4.22C10.8 4.55 10.78 4.91 10.87 5.25C10.96 5.6 11.16 5.9 11.43 6.12L11.45 6.14C11.55 6.23 11.62 6.34 11.66 6.47C11.74 6.85 11.78 7.23 11.79 7.62L11.64 7.82L11.49 7.79C11.36 7.7 11.24 7.58 11.16 7.44C11.07 7.3 11.01 7.15 10.99 6.99L10.89 6.9L10.81 7.05C10.84 7.28 10.92 7.51 11.06 7.71C11.2 7.9 11.39 8.06 11.6 8.16L11.66 8.2C11.79 8.29 11.9 8.41 11.97 8.54C12.21 8.99 12.43 9.35 12.55 9.54L12.62 9.65C12.64 9.68 12.66 9.73 12.68 9.77C12.69 9.82 12.69 9.87 12.67 9.91L12.56 9.98C12.38 10.02 11.88 10.11 11.32 9.45L11.2 9.43L11.17 9.55C11.54 10.37 12.29 10.38 12.7 10.38C12.77 10.38 12.85 10.39 12.93 10.41C13.13 10.46 13.3 10.57 13.43 10.73C13.27 10.72 13.1 10.73 12.94 10.77C12.83 10.8 12.78 10.9 12.73 10.99C12.71 11.05 12.68 11.11 12.63 11.15C12.59 11.2 12.53 11.23 12.47 11.26C12.16 11.36 10.56 11.75 10.4 11.79C10.19 11.84 10.31 12.89 10.32 12.9C10.49 13.15 10.76 13.33 11.06 13.38C11.54 13.39 12 13.5 12.44 13.7L12.55 13.75L12.64 13.78C12.79 13.85 12.94 13.9 13.09 13.94C13.28 13.99 13.55 14.03 13.55 14.03C13.34 14.05 13.14 14.05 12.93 14.03L12.71 14.01C12.86 14.97 12.1 16.11 11.3 17.2C10.47 18.34 9.61 20.08 10.26 21.84C10.35 22.09 10.45 22.31 10.54 22.52C10.75 23.02 11.02 23.5 11.33 23.94C11.58 24.23 12.11 24.8 12.37 25.08C12.37 24.86 12.29 24.28 12.29 24.28L12.68 25.6C12.72 25.69 12.76 25.78 12.79 25.88C12.87 26.1 12.95 26.33 13.05 26.53C13.19 26.82 13.34 27.1 13.52 27.36C13.68 27.59 13.8 27.85 13.86 28.12C13.9 28.36 13.89 29.45 13.88 29.92L13.88 30.11C13.91 30.29 13.96 30.46 14.04 30.62C14.12 30.8 14.18 30.99 14.21 31.19L14.21 34.28C14.19 34.41 14.15 34.54 14.09 34.66L14.04 34.78C14.04 34.8 14.04 35.15 14.02 35.31C14 35.43 13.95 35.55 13.89 35.65L13.55 35.79L13.52 35.8L12.94 36.66L12.94 36.71L12.99 36.74L14.48 36.74L14.53 36.7L14.58 36.07L14.58 36.03L14.49 35.92L14.62 35.72C14.75 35.72 15.05 35.72 15.12 35.65C15.2 35.57 15.17 35.43 15.12 35.02C15.1 34.83 15.08 34.64 15.08 34.5L15.08 34.1C15.08 33.27 15.08 31.55 15.08 31.27C15.09 31.15 15.12 31.02 15.15 30.9C15.22 30.68 15.26 30.46 15.26 30.22C15.26 29.94 15.37 29.06 15.42 28.35C15.44 27.95 15.53 27.55 15.67 27.17C15.81 26.78 15.92 26.4 16.26 26.34C16.7 26.34 17.14 26.4 17.56 26.52C18.1 26.66 18.65 26.74 19.2 26.77C19.55 26.76 19.9 26.73 20.25 26.68C20.59 26.6 20.98 26.46 21.11 26.42C21.65 26.24 22.51 25.84 23.06 26.02C23.42 26.14 24.59 27.12 25.38 27.8C25.73 28.03 26.08 28.28 26.4 28.55C26.95 29.02 27.87 29.8 28.11 30.28C28.53 31.18 28.73 32.15 29.04 33.64C29.12 34.08 29.17 34.53 29.17 34.98C29.17 35.09 29.21 35.2 29.28 35.29L29.36 35.47C29.38 35.57 29.36 35.82 29.3 35.86L28.92 36.14L28.92 36.16L28.66 36.7L28.66 36.75L28.71 36.77L29.97 36.77L30.03 36.73L30.15 36.06L30.15 36.03L30.07 35.84L30.11 35.58C30.24 35.49 30.35 35.37 30.43 35.23L30.43 35.19C30.11 34.37 29.88 33.52 29.73 32.66ZM13.72 11.87C13.61 11.89 13.49 11.87 13.39 11.83C13.42 11.76 13.46 11.7 13.51 11.65C13.57 11.6 13.63 11.56 13.7 11.54C13.87 11.51 14.01 11.71 14.03 11.74C13.94 11.82 13.84 11.86 13.72 11.87Z" fill="#181B21" fill-opacity="1.000000" fill-rule="nonzero"/>
	</g>
</svg>
