<svg width="24" height="24" viewBox="0 0 24 24" fill="none" xmlns="http://www.w3.org/2000/svg">
<path d="M4.875 9.31733L4.375 9.31733L4.875 9.31733ZM4.875 16.875H5.375H4.875ZM16.875 19.125V18.625V19.125ZM7.125 19.125V19.625V19.625V19.125ZM19.125 9.31734H18.625H19.125ZM19.125 16.875L19.625 16.875V16.875H19.125ZM16.875 7.06734L16.875 7.56734L16.875 7.06734ZM7.125 7.06733L7.125 6.56733L7.125 7.06733ZM13.0962 4.875V4.375H13.0962L13.0962 4.875ZM10.9039 4.875L10.9039 5.375L10.9039 4.875ZM4.375 9.31733L4.375 16.875H5.375L5.375 9.31733L4.375 9.31733ZM16.875 18.625L7.125 18.625V19.625L16.875 19.625V18.625ZM18.625 9.31734V16.875H19.625V9.31734H18.625ZM16.875 6.56734L7.125 6.56733L7.125 7.56733L16.875 7.56734L16.875 6.56734ZM19.625 9.31734C19.625 7.79856 18.3938 6.56735 16.875 6.56734L16.875 7.56734C17.8415 7.56735 18.625 8.35085 18.625 9.31734H19.625ZM5.375 9.31733C5.375 8.35083 6.1585 7.56732 7.125 7.56733L7.125 6.56733C5.60622 6.56732 4.375 7.79854 4.375 9.31733L5.375 9.31733ZM4.375 16.875C4.375 18.3938 5.60622 19.625 7.125 19.625V18.625C6.1585 18.625 5.375 17.8415 5.375 16.875H4.375ZM16.875 19.625C18.3938 19.625 19.625 18.3938 19.625 16.875L18.625 16.875C18.625 17.8415 17.8415 18.625 16.875 18.625V19.625ZM10.3558 12.048L4.87499 12.048L4.87499 13.048L10.3558 13.048L10.3558 12.048ZM19.125 12.048L13.6442 12.048L13.6442 13.048L19.125 13.048L19.125 12.048ZM13.0962 4.375L10.9039 4.375L10.9039 5.375L13.0962 5.375L13.0962 4.375ZM15.7885 7.0673C15.7885 5.58039 14.5831 4.375 13.0962 4.375V5.375C14.0308 5.375 14.7885 6.13267 14.7885 7.0673H15.7885ZM9.21156 7.06731C9.21156 6.13267 9.96923 5.375 10.9039 5.375L10.9039 4.375C9.41694 4.375 8.21156 5.58039 8.21156 7.06731H9.21156ZM13.1442 13.0962C13.1442 13.7281 12.6319 14.2404 12 14.2404V15.2404C13.1842 15.2404 14.1442 14.2804 14.1442 13.0962H13.1442ZM12 14.2404C11.368 14.2404 10.8558 13.7281 10.8558 13.0962H9.85576C9.85576 14.2804 10.8158 15.2404 12 15.2404V14.2404ZM10.8558 13.0962C10.8558 12.4643 11.368 11.952 12 11.952V10.952C10.8158 10.952 9.85576 11.912 9.85576 13.0962H10.8558ZM12 11.952C12.6319 11.952 13.1442 12.4643 13.1442 13.0962H14.1442C14.1442 11.912 13.1842 10.952 12 10.952V11.952Z" fill="black"/>
</svg>
