<svg width="24" height="24" viewBox="0 0 24 24" fill="none" xmlns="http://www.w3.org/2000/svg">
<path d="M12 15.1667V15.6752M9.625 10.4167C9.625 9.10499 10.6883 8.04167 12 8.04167C13.3117 8.04167 14.375 9.10499 14.375 10.4167C14.375 11.6676 12.7498 12.5389 12 13.3854V13.5833M11.9772 19.125C8.04214 19.125 4.875 15.8791 4.875 11.964C4.875 8.04885 8.06497 4.875 12 4.875C15.935 4.875 19.125 8.04884 19.125 11.964C19.125 13.4134 18.6878 14.7612 17.9375 15.8839L19.1022 19.0757C16.7148 19.0989 14.3573 19.125 11.9772 19.125Z" stroke="black" stroke-linecap="round" stroke-linejoin="round"/>
</svg>
