<svg width="24" height="24" viewBox="0 0 24 24" fill="none" xmlns="http://www.w3.org/2000/svg">
<path d="M8.10577 10.9615H15.8942C17.4714 10.9615 18.75 9.68297 18.75 8.10577C18.75 6.52857 17.4714 5.25 15.8942 5.25H8.10577M8.10577 10.9615C6.52857 10.9615 5.25 9.68297 5.25 8.10577C5.25 6.52857 6.52857 5.25 8.10577 5.25M8.10577 10.9615C9.68297 10.9615 10.9615 9.68297 10.9615 8.10577C10.9615 6.52857 9.68297 5.25 8.10577 5.25M15.8942 18.75H8.10577C6.52857 18.75 5.25 17.4714 5.25 15.8942C5.25 14.317 6.52857 13.0385 8.10577 13.0385H15.8942M15.8942 18.75C17.4714 18.75 18.75 17.4714 18.75 15.8942C18.75 14.317 17.4714 13.0385 15.8942 13.0385M15.8942 18.75C14.317 18.75 13.0385 17.4714 13.0385 15.8942C13.0385 14.317 14.317 13.0385 15.8942 13.0385" stroke="black"/>
</svg>
