<svg width="24" height="24" viewBox="0 0 24 24" fill="none" xmlns="http://www.w3.org/2000/svg">
<path d="M10.9927 4.42174C11.3654 3.52579 12.6346 3.52578 13.0073 4.42174L14.3891 7.74419C14.5462 8.1219 14.9015 8.37998 15.3092 8.41267L18.8961 8.70023C19.8634 8.77777 20.2556 9.98487 19.5186 10.6161L16.7858 12.9571C16.4751 13.2232 16.3394 13.6408 16.4344 14.0387L17.2693 17.5389C17.4944 18.4828 16.4676 19.2288 15.6395 18.723L12.5686 16.8473C12.2195 16.6341 11.7805 16.6341 11.4314 16.8473L8.3605 18.723C7.53239 19.2288 6.50557 18.4828 6.73072 17.5389L7.56564 14.0387C7.66056 13.6408 7.52488 13.2232 7.2142 12.9571L4.48139 10.6161C3.74444 9.98487 4.13665 8.77777 5.10391 8.70023L8.69077 8.41267C9.09854 8.37998 9.45376 8.12191 9.61085 7.74419L10.9927 4.42174Z" stroke="#fff"/>
</svg>
