<svg width="40" height="40" viewBox="0 0 40 40" fill="none" xmlns="http://www.w3.org/2000/svg">
<path d="M16 0.75H24C27.7924 0.75 30.5618 0.75152 32.6787 1.03613C34.7738 1.31786 36.118 1.86412 37.127 2.87305C38.1359 3.88197 38.6821 5.2262 38.9639 7.32129C39.2485 9.43821 39.25 12.2076 39.25 16V24C39.25 27.7924 39.2485 30.5618 38.9639 32.6787C38.6821 34.7738 38.1359 36.118 37.127 37.127C36.118 38.1359 34.7738 38.6821 32.6787 38.9639C30.5618 39.2485 27.7924 39.25 24 39.25H16C12.2076 39.25 9.43821 39.2485 7.32129 38.9639C5.2262 38.6821 3.88197 38.1359 2.87305 37.127C1.86412 36.118 1.31786 34.7738 1.03613 32.6787C0.75152 30.5618 0.75 27.7924 0.75 24V16C0.75 12.2076 0.75152 9.43821 1.03613 7.32129C1.31786 5.2262 1.86412 3.88197 2.87305 2.87305C3.88197 1.86412 5.2262 1.31786 7.32129 1.03613C9.43821 0.75152 12.2076 0.75 16 0.75Z" fill="#ECEEF4"/>
<path d="M16 0.75H24C27.7924 0.75 30.5618 0.75152 32.6787 1.03613C34.7738 1.31786 36.118 1.86412 37.127 2.87305C38.1359 3.88197 38.6821 5.2262 38.9639 7.32129C39.2485 9.43821 39.25 12.2076 39.25 16V24C39.25 27.7924 39.2485 30.5618 38.9639 32.6787C38.6821 34.7738 38.1359 36.118 37.127 37.127C36.118 38.1359 34.7738 38.6821 32.6787 38.9639C30.5618 39.2485 27.7924 39.25 24 39.25H16C12.2076 39.25 9.43821 39.2485 7.32129 38.9639C5.2262 38.6821 3.88197 38.1359 2.87305 37.127C1.86412 36.118 1.31786 34.7738 1.03613 32.6787C0.75152 30.5618 0.75 27.7924 0.75 24V16C0.75 12.2076 0.75152 9.43821 1.03613 7.32129C1.31786 5.2262 1.86412 3.88197 2.87305 2.87305C3.88197 1.86412 5.2262 1.31786 7.32129 1.03613C9.43821 0.75152 12.2076 0.75 16 0.75Z" stroke="#ECEEF4" stroke-width="1.5"/>
<path d="M20.5 22.85C20.5 22.5739 20.2761 22.35 20 22.35C19.7239 22.35 19.5 22.5739 19.5 22.85H20.5ZM19.5 23.5625C19.5 23.8386 19.7239 24.0625 20 24.0625C20.2761 24.0625 20.5 23.8386 20.5 23.5625H19.5ZM20 21.2469L19.6257 20.9153C19.5447 21.0068 19.5 21.1247 19.5 21.2469H20ZM20 22.85H19.5V23.5625H20H20.5V22.85H20ZM17.8625 18.575H18.3625C18.3625 17.6706 19.0956 16.9375 20 16.9375V16.4375V15.9375C18.5433 15.9375 17.3625 17.1183 17.3625 18.575H17.8625ZM20 16.4375V16.9375C20.9044 16.9375 21.6375 17.6706 21.6375 18.575H22.1375H22.6375C22.6375 17.1183 21.4567 15.9375 20 15.9375V16.4375ZM20 21.2469H19.5V21.425H20H20.5V21.2469H20ZM22.1375 18.575H21.6375C21.6375 18.9164 21.4135 19.2663 20.9756 19.6867C20.764 19.8898 20.5335 20.0815 20.2939 20.2862C20.0635 20.483 19.8204 20.6955 19.6257 20.9153L20 21.2469L20.3743 21.5784C20.517 21.4173 20.7098 21.2461 20.9435 21.0465C21.168 20.8546 21.4296 20.6371 21.6681 20.4081C22.1301 19.9646 22.6375 19.3594 22.6375 18.575H22.1375ZM27.125 20H26.625C26.625 23.6589 23.6589 26.625 20 26.625V27.125V27.625C24.2112 27.625 27.625 24.2112 27.625 20H27.125ZM20 27.125V26.625C16.3411 26.625 13.375 23.6589 13.375 20H12.875H12.375C12.375 24.2112 15.7888 27.625 20 27.625V27.125ZM12.875 20H13.375C13.375 16.3411 16.3411 13.375 20 13.375V12.875V12.375C15.7888 12.375 12.375 15.7888 12.375 20H12.875ZM20 12.875V13.375C23.6589 13.375 26.625 16.3411 26.625 20H27.125H27.625C27.625 15.7888 24.2112 12.375 20 12.375V12.875Z" fill="#487BFE"/>
</svg>
