<svg width="40" height="40" viewBox="0 0 40 40" fill="none" xmlns="http://www.w3.org/2000/svg">
<path d="M0 16C0 8.45753 0 4.68629 2.34315 2.34315C4.68629 0 8.45753 0 16 0H24C31.5425 0 35.3137 0 37.6569 2.34315C40 4.68629 40 8.45753 40 16V24C40 31.5425 40 35.3137 37.6569 37.6569C35.3137 40 31.5425 40 24 40H16C8.45753 40 4.68629 40 2.34315 37.6569C0 35.3137 0 31.5425 0 24V16Z" fill="#ECEEF4"/>
<path d="M16.6406 24.4452L16.6406 13.5807M13.4487 16.4149L16.6371 13.25L19.8255 16.4149M23.3589 15.5547L23.3589 26.4191M26.5508 23.585L23.3624 26.7499L20.174 23.585" stroke="#487BFE" stroke-linecap="round" stroke-linejoin="round"/>
</svg>
