<svg width="40" height="40" viewBox="0 0 40 40" fill="none" xmlns="http://www.w3.org/2000/svg">
<path d="M0 16C0 8.45753 0 4.68629 2.34315 2.34315C4.68629 0 8.45753 0 16 0H24C31.5425 0 35.3137 0 37.6569 2.34315C40 4.68629 40 8.45753 40 16V24C40 31.5425 40 35.3137 37.6569 37.6569C35.3137 40 31.5425 40 24 40H16C8.45753 40 4.68629 40 2.34315 37.6569C0 35.3137 0 31.5425 0 24V16Z" fill="#ECEEF4"/>
<path d="M14.6812 13.625L25.3188 13.625C26.1092 13.625 26.75 14.2658 26.75 15.0562C26.75 15.4215 26.6103 15.773 26.3595 16.0386L21.5577 21.125L21.5577 24.6462C21.5577 25.794 20.3584 26.5476 19.3242 26.0496C18.7851 25.79 18.4423 25.2445 18.4423 24.6462L18.4423 21.125L13.6405 16.0386C13.3897 15.773 13.25 15.4215 13.25 15.0562C13.25 14.2658 13.8908 13.625 14.6812 13.625Z" stroke="#487BFE"/>
</svg>
