<svg width="40" height="40" viewBox="0 0 40 40" fill="none" xmlns="http://www.w3.org/2000/svg">
<path d="M0 16C0 8.45753 0 4.68629 2.34315 2.34315C4.68629 0 8.45753 0 16 0H24C31.5425 0 35.3137 0 37.6569 2.34315C40 4.68629 40 8.45753 40 16V24C40 31.5425 40 35.3137 37.6569 37.6569C35.3137 40 31.5425 40 24 40H16C8.45753 40 4.68629 40 2.34315 37.6569C0 35.3137 0 31.5425 0 24V16Z" fill="#ECEEF4"/>
<path d="M23.1095 25.1936C22.5247 25.8162 22.6666 25.7568 21.3828 26.4238C21.0195 26.5398 20.5903 26.5955 20.0955 26.5907C19.3367 26.5835 18.7436 26.3986 18.316 26.0659C17.8884 25.7332 17.6921 25.3131 17.6943 24.7754C17.6951 24.5663 17.6959 24.3572 17.7297 24.1484C17.7636 23.9396 17.7975 23.7009 17.8975 23.433L18.6993 20.9312C18.7662 20.6928 18.8331 20.4545 18.8669 20.2457C18.9008 20.0369 18.9346 19.8281 18.9353 19.6488C18.9366 19.3202 18.8714 19.1105 18.707 18.9894C18.5755 18.8687 18.2788 18.8061 17.8829 18.8023C17.685 18.8004 17.4869 18.8284 17.2557 18.8859C17.0576 18.9438 16.939 18.9501 16.7739 18.9784L16.8875 18.8435C17.2731 18.3694 17.8865 17.9061 18.3818 17.7913C18.8443 17.6464 19.3064 17.591 19.7023 17.5948C20.461 17.6021 21.0212 17.7866 21.4487 18.1193C21.8433 18.4517 22.0726 18.8721 22.0705 19.4099C22.07 19.5294 22.0693 19.7086 22.0352 19.9771C22.0012 20.2457 21.9671 20.5142 21.8673 20.7224L21.0656 23.2242C20.9988 23.4327 20.932 23.6412 20.8979 23.9097C20.8309 24.1779 20.8302 24.3572 20.8296 24.5065C20.8283 24.8351 20.8933 25.0748 21.0578 25.1958C21.2223 25.3169 21.5189 25.3795 21.9148 25.3832C22.1128 25.3851 22.3108 25.3572 22.575 25.2999C22.8062 25.2424 22.9714 25.1842 23.1034 25.1556L23.1095 25.1936Z" stroke="#487BFE" stroke-miterlimit="10" stroke-linecap="round" stroke-linejoin="round"/>
<path d="M23.3104 14.2396C23.4472 15.1008 22.8718 15.9079 22.0253 16.0423C21.1789 16.1767 20.3818 15.5875 20.2451 14.7263C20.1084 13.8651 20.6837 13.058 21.5302 12.9236C22.3767 12.7892 23.1737 13.3784 23.3104 14.2396Z" stroke="#487BFE" stroke-miterlimit="10" stroke-linecap="round" stroke-linejoin="round"/>
</svg>
