<svg width="24.000000" height="24.000000" viewBox="0 0 24 24" fill="none" xmlns="http://www.w3.org/2000/svg" xmlns:xlink="http://www.w3.org/1999/xlink">
	<desc>
			Created with Pixso.
	</desc>
	<defs/>
	<path id="eye" d="M11.74 17.62C8.15 17.62 5.25 14.15 5.25 13.27C5.25 12.39 8.15 8.93 11.74 8.93C15.32 8.93 18.23 12.39 18.23 13.27C18.23 14.15 15.32 17.62 11.74 17.62ZM11.74 8.93C13.32 8.93 14.59 10.19 14.59 11.74C14.59 13.29 13.32 14.55 11.74 14.55C10.16 14.55 8.88 13.29 8.88 11.74C8.88 10.19 10.16 8.93 11.74 8.93M5.25 8.93C7.22 7.3 9.53 6.37 12 6.37C14.46 6.37 16.77 7.3 18.75 8.93" stroke="#181B21" stroke-opacity="1.000000" stroke-width="1.000000" stroke-linecap="round"/>
</svg>
