<svg width="24.000000" height="24.000000" viewBox="0 0 24 24" fill="none" xmlns="http://www.w3.org/2000/svg" xmlns:xlink="http://www.w3.org/1999/xlink">
	<desc>
			Created with Pixso.
	</desc>
	<defs/>
	<path id="pie-chart" d="M17.92 15.95C17.14 17.13 16.02 18.04 14.72 18.58C13.42 19.12 11.99 19.26 10.6 18.98C9.22 18.71 7.95 18.03 6.96 17.03C5.96 16.04 5.28 14.77 5.01 13.39C4.73 12 4.87 10.57 5.41 9.27C5.95 7.97 6.86 6.85 8.04 6.07C9.21 5.29 10.58 4.87 12 4.87C12.46 4.87 12.92 4.92 13.39 5.01C14.77 5.28 16.04 5.96 17.03 6.96C18.03 7.95 18.71 9.22 18.98 10.61C19.08 11.06 19.12 11.53 19.12 12C19.12 13.4 18.7 14.78 17.92 15.95ZM12 4.87L12 12L19.12 12" stroke="#fff" stroke-opacity="1.000000" stroke-width="1.000000"/>
</svg>
