<svg width="24.000000" height="24.000000" viewBox="0 0 24 24" fill="none" xmlns="http://www.w3.org/2000/svg" xmlns:xlink="http://www.w3.org/1999/xlink">
	<desc>
			Created with Pixso.
	</desc>
	<defs/>
	<path id="home" d="M4.87 18.03C4.87 18.63 5.36 19.12 5.97 19.12L18.02 19.12C18.63 19.12 19.12 18.63 19.12 18.03L19.12 12.39C19.12 11.84 18.91 11.31 18.54 10.91L13.61 5.57C12.74 4.64 11.25 4.64 10.38 5.57L5.45 10.91C5.08 11.31 4.87 11.84 4.87 12.39L4.87 18.03ZM9.8 18.57C9.8 18.88 10.05 19.12 10.35 19.12L13.64 19.12C13.94 19.12 14.19 18.88 14.19 18.57L14.19 13.66C14.19 13.36 13.94 13.11 13.64 13.11L10.35 13.11C10.05 13.11 9.8 13.36 9.8 13.66L9.8 18.57Z" stroke="white" stroke-opacity="1.000000" stroke-width="1.000000"/>
</svg>
