<svg width="40" height="40" viewBox="0 0 40 40" fill="none" xmlns="http://www.w3.org/2000/svg">
<path d="M0 16C0 8.45753 0 4.68629 2.34315 2.34315C4.68629 0 8.45753 0 16 0H24C31.5425 0 35.3137 0 37.6569 2.34315C40 4.68629 40 8.45753 40 16V24C40 31.5425 40 35.3137 37.6569 37.6569C35.3137 40 31.5425 40 24 40H16C8.45753 40 4.68629 40 2.34315 37.6569C0 35.3137 0 31.5425 0 24V16Z" fill="#ECEEF4"/>
<path d="M26.1663 21.8104C25.2582 21.8104 24.5221 21.0743 24.5221 20.1662C24.5221 19.2581 25.2582 18.522 26.1663 18.522C27.0744 18.522 27.8105 19.2581 27.8105 20.1662C27.8105 21.0743 27.0744 21.8104 26.1663 21.8104Z" stroke="#487BFE" stroke-linecap="round"/>
<path d="M14.1223 21.8105C13.2142 21.8105 12.4781 21.0743 12.4781 20.1663C12.4781 19.2582 13.2142 18.522 14.1223 18.522C15.0304 18.522 15.7665 19.2582 15.7665 20.1663C15.7665 21.0743 15.0304 21.8105 14.1223 21.8105Z" stroke="#487BFE" stroke-linecap="round"/>
<path d="M20.1223 21.8104C19.2142 21.8104 18.4781 21.0743 18.4781 20.1662C18.4781 19.2581 19.2142 18.522 20.1223 18.522C21.0304 18.522 21.7666 19.2581 21.7666 20.1662C21.7666 21.0743 21.0304 21.8104 20.1223 21.8104Z" stroke="#487BFE" stroke-linecap="round"/>
</svg>
