<svg width="40" height="40" viewBox="0 0 40 40" fill="none" xmlns="http://www.w3.org/2000/svg">
<path d="M-0.00012207 16C-0.00012207 8.45753 -0.00012207 4.68629 2.34302 2.34315C4.68617 0 8.45741 0 15.9999 0H23.9999C31.5424 0 35.3136 0 37.6567 2.34315C39.9999 4.68629 39.9999 8.45753 39.9999 16V24C39.9999 31.5425 39.9999 35.3137 37.6567 37.6569C35.3136 40 31.5424 40 23.9999 40H15.9999C8.45741 40 4.68617 40 2.34302 37.6569C-0.00012207 35.3137 -0.00012207 31.5425 -0.00012207 24V16Z" fill="#ECEEF4"/>
<path d="M17.8363 22.2467L22.2466 17.8365M19.6966 16.0155L21.9489 13.7631C23.133 12.579 25.0528 12.579 26.2369 13.7631C27.4209 14.9471 27.4209 16.8669 26.2369 18.051L24.4827 19.8051M20.309 23.9789L18.0509 26.237C16.8668 27.4211 14.947 27.4211 13.7629 26.237C12.5789 25.0529 12.5789 23.1332 13.7629 21.9491L15.9069 19.8051" stroke="#487BFE" stroke-linecap="round" stroke-linejoin="round"/>
</svg>
