<svg width="40" height="40" viewBox="0 0 40 40" fill="none" xmlns="http://www.w3.org/2000/svg">
<path d="M-0.00012207 16C-0.00012207 8.45753 -0.00012207 4.68629 2.34302 2.34315C4.68617 0 8.45741 0 15.9999 0H23.9999C31.5424 0 35.3136 0 37.6567 2.34315C39.9999 4.68629 39.9999 8.45753 39.9999 16V24C39.9999 31.5425 39.9999 35.3137 37.6567 37.6569C35.3136 40 31.5424 40 23.9999 40H15.9999C8.45741 40 4.68617 40 2.34302 37.6569C-0.00012207 35.3137 -0.00012207 31.5425 -0.00012207 24V16Z" fill="#ECEEF4"/>
<path d="M16.7114 27.125H12.8749L12.8749 23.281L20.822 15.3185M16.7114 27.125L27.1249 27.125M16.7114 27.125L24.6585 19.1625M20.822 15.3185L22.4662 13.6711C23.5257 12.6096 25.2433 12.6096 26.3028 13.6711C27.3622 14.7326 27.3622 16.4536 26.3028 17.5151L24.6585 19.1625M20.822 15.3185L24.6585 19.1625" stroke="#487BFE" stroke-linecap="round" stroke-linejoin="round"/>
</svg>
